<svg width="1600" height="900" viewBox="0 0 1600 900" fill="none" xmlns="http://www.w3.org/2000/svg">
  <defs>
    <linearGradient id="bg" x1="0" y1="0" x2="1600" y2="900" gradientUnits="userSpaceOnUse">
      <stop stop-color="#0B1220"/>
      <stop offset="1" stop-color="#111827"/>
    </linearGradient>
    <linearGradient id="card" x1="0" y1="0" x2="1" y2="1">
      <stop stop-color="#1F2937" stop-opacity="0.95"/>
      <stop offset="1" stop-color="#111827" stop-opacity="0.95"/>
    </linearGradient>
    <linearGradient id="bar" x1="0" y1="0" x2="1" y2="0">
      <stop stop-color="#22C55E"/>
      <stop offset="1" stop-color="#3B82F6"/>
    </linearGradient>
  </defs>

  <rect width="1600" height="900" fill="url(#bg)"/>
  <circle cx="1370" cy="120" r="200" fill="#1D4ED8" fill-opacity="0.15"/>
  <circle cx="160" cy="800" r="250" fill="#22C55E" fill-opacity="0.12"/>

  <rect x="40" y="28" width="1520" height="56" rx="14" fill="#0F172A" stroke="#334155"/>
  <text x="70" y="63" font-family="Segoe UI, Arial, sans-serif" font-size="24" font-weight="700" fill="#E2E8F0">mark3ts</text>
  <text x="220" y="63" font-family="Segoe UI, Arial, sans-serif" font-size="14" fill="#94A3B8">AI Market Intelligence + Paper Trading Simulation</text>

  <rect x="40" y="104" width="1520" height="72" rx="14" fill="#0F172A" stroke="#334155"/>
  <text x="64" y="134" font-family="Segoe UI, Arial, sans-serif" font-size="14" font-weight="600" fill="#BFDBFE">Background Analysis Running</text>
  <text x="64" y="156" font-family="Segoe UI, Arial, sans-serif" font-size="12" fill="#93C5FD">Model: ollama · qwen2.5:latest · 128 / 740 processed</text>
  <rect x="64" y="164" width="1432" height="8" rx="4" fill="#1E293B"/>
  <rect x="64" y="164" width="248" height="8" rx="4" fill="url(#bar)"/>

  <rect x="40" y="196" width="930" height="664" rx="16" fill="url(#card)" stroke="#374151"/>
  <text x="66" y="232" font-family="Segoe UI, Arial, sans-serif" font-size="18" font-weight="700" fill="#E5E7EB">News Intelligence Feed</text>

  <rect x="66" y="248" width="878" height="44" rx="10" fill="#0F172A" stroke="#334155"/>
  <text x="84" y="276" font-family="Segoe UI, Arial, sans-serif" font-size="12" fill="#9CA3AF">Search by title, source, or ticker...</text>

  <rect x="66" y="308" width="878" height="94" rx="12" fill="#0F172A" stroke="#334155"/>
  <text x="84" y="336" font-family="Segoe UI, Arial, sans-serif" font-size="14" font-weight="600" fill="#F1F5F9">NVIDIA supplier guidance suggests elevated AI capex through Q4</text>
  <text x="84" y="358" font-family="Segoe UI, Arial, sans-serif" font-size="12" fill="#93C5FD">Sentiment: Bullish (+0.71) · Entities: NVDA, TSM, AVGO · Sector: Semiconductors</text>
  <text x="84" y="378" font-family="Segoe UI, Arial, sans-serif" font-size="12" fill="#94A3B8">Price impact: Positive momentum for AI supply chain over near term.</text>

  <rect x="66" y="416" width="878" height="94" rx="12" fill="#0F172A" stroke="#334155"/>
  <text x="84" y="444" font-family="Segoe UI, Arial, sans-serif" font-size="14" font-weight="600" fill="#F1F5F9">Energy exports tighten after new geopolitical shipping constraints</text>
  <text x="84" y="466" font-family="Segoe UI, Arial, sans-serif" font-size="12" fill="#FCA5A5">Sentiment: Bearish (-0.64) · Entities: XOM, CVX · Macro: Oil supply risk</text>
  <text x="84" y="486" font-family="Segoe UI, Arial, sans-serif" font-size="12" fill="#94A3B8">Price impact: Volatility expected across refiners and transport-sensitive names.</text>

  <rect x="990" y="196" width="570" height="664" rx="16" fill="url(#card)" stroke="#374151"/>
  <text x="1016" y="232" font-family="Segoe UI, Arial, sans-serif" font-size="18" font-weight="700" fill="#E5E7EB">Portfolio Simulator</text>

  <rect x="1016" y="248" width="518" height="112" rx="12" fill="#0F172A" stroke="#334155"/>
  <text x="1036" y="280" font-family="Segoe UI, Arial, sans-serif" font-size="13" fill="#9CA3AF">Live Portfolio Value</text>
  <text x="1036" y="320" font-family="Segoe UI, Arial, sans-serif" font-size="34" font-weight="700" fill="#F8FAFC">$12,842</text>
  <text x="1250" y="320" font-family="Segoe UI, Arial, sans-serif" font-size="16" font-weight="600" fill="#4ADE80">+8.42%</text>

  <rect x="1016" y="376" width="518" height="218" rx="12" fill="#0F172A" stroke="#334155"/>
  <text x="1036" y="406" font-family="Segoe UI, Arial, sans-serif" font-size="13" font-weight="600" fill="#CBD5E1">Holdings</text>
  <text x="1036" y="434" font-family="Segoe UI, Arial, sans-serif" font-size="12" fill="#BFDBFE">NVDA</text>
  <text x="1112" y="434" font-family="Segoe UI, Arial, sans-serif" font-size="12" fill="#94A3B8">$4,220</text>
  <text x="1482" y="434" text-anchor="end" font-family="Segoe UI, Arial, sans-serif" font-size="12" fill="#4ADE80">+11.24%</text>

  <text x="1036" y="462" font-family="Segoe UI, Arial, sans-serif" font-size="12" fill="#BFDBFE">TSM</text>
  <text x="1112" y="462" font-family="Segoe UI, Arial, sans-serif" font-size="12" fill="#94A3B8">$3,180</text>
  <text x="1482" y="462" text-anchor="end" font-family="Segoe UI, Arial, sans-serif" font-size="12" fill="#4ADE80">+6.02%</text>

  <text x="1036" y="490" font-family="Segoe UI, Arial, sans-serif" font-size="12" fill="#FCA5A5">XOM (short)</text>
  <text x="1112" y="490" font-family="Segoe UI, Arial, sans-serif" font-size="12" fill="#94A3B8">$2,910</text>
  <text x="1482" y="490" text-anchor="end" font-family="Segoe UI, Arial, sans-serif" font-size="12" fill="#F87171">-2.40%</text>

  <text x="1036" y="518" font-family="Segoe UI, Arial, sans-serif" font-size="12" fill="#BFDBFE">MSFT</text>
  <text x="1112" y="518" font-family="Segoe UI, Arial, sans-serif" font-size="12" fill="#94A3B8">$2,532</text>
  <text x="1482" y="518" text-anchor="end" font-family="Segoe UI, Arial, sans-serif" font-size="12" fill="#4ADE80">+4.13%</text>

  <rect x="1016" y="610" width="518" height="232" rx="12" fill="#0F172A" stroke="#334155"/>
  <text x="1036" y="640" font-family="Segoe UI, Arial, sans-serif" font-size="13" font-weight="600" fill="#CBD5E1">Performance (30d)</text>
  <polyline points="1040,800 1110,760 1180,770 1250,730 1320,700 1390,715 1460,680 1520,660" fill="none" stroke="#3B82F6" stroke-width="3"/>
  <polyline points="1040,820 1110,815 1180,812 1250,808 1320,804 1390,802 1460,798 1520,794" fill="none" stroke="#64748B" stroke-width="2" stroke-dasharray="6 5"/>
  <text x="1036" y="828" font-family="Segoe UI, Arial, sans-serif" font-size="11" fill="#94A3B8">Portfolio vs benchmark (simulated)</text>
</svg>
